<svg width="70" height="70" viewBox="0 0 70 70" fill="none" xmlns="http://www.w3.org/2000/svg">
<path d="M36.4583 20.4168C36.4583 17.1793 39.0542 14.5835 42.2917 14.5835H52.5C55.7083 14.5835 58.3333 17.2085 58.3333 20.4168V26.7168C54.95 27.9127 52.5 31.121 52.5 34.9127V40.8335H36.4583V20.4168ZM17.5 34.8835V40.8335H33.5417V20.4168C33.5417 17.1793 30.9458 14.5835 27.7083 14.5835H17.5C14.2917 14.5835 11.6667 17.2085 11.6667 20.4168V26.6877C15.05 27.8835 17.5 31.121 17.5 34.8835ZM60.2583 29.2543C57.4 29.721 55.4167 32.4335 55.4167 35.3502V43.7502H14.5833V35.0002C14.5833 33.4531 13.9687 31.9693 12.8748 30.8754C11.7808 29.7814 10.2971 29.1668 8.74999 29.1668C7.20289 29.1668 5.71916 29.7814 4.6252 30.8754C3.53124 31.9693 2.91666 33.4531 2.91666 35.0002V49.5835C2.91666 52.7918 5.54166 55.4168 8.74999 55.4168V61.2502H14.5833V55.4168H55.4167V61.2502H61.25V55.4168C64.4583 55.4168 67.0833 52.7918 67.0833 49.5835V35.0002C67.0833 31.471 63.9042 28.6418 60.2583 29.2543Z" fill="#d4c4bc"/>
</svg>
